# Blender v3.0.1 OBJ File: ''
# www.blender.org
mtllib burger.mtl
o Cube.018_Cube.028
v 0.000214 -0.090191 0.171940
v 0.000214 -0.036354 0.171940
v -0.127105 -0.036354 0.127398
v -0.127105 -0.090191 0.127398
v 0.000214 -0.090191 -0.171781
v 0.000214 -0.036354 -0.171781
v 0.127533 -0.036354 -0.127239
v 0.127533 -0.090191 -0.127239
v 0.172075 -0.090191 0.000080
v 0.172075 -0.036354 0.000080
v 0.127533 -0.036354 0.127398
v 0.127533 -0.090191 0.127398
v -0.171647 -0.090191 0.000080
v -0.171647 -0.036354 0.000080
v -0.127105 -0.036354 -0.127239
v -0.127105 -0.090191 -0.127239
v 0.000214 -0.090191 0.000080
v 0.000198 0.063486 -0.162369
v -0.120144 0.063486 -0.120268
v -0.074483 0.088960 -0.074608
v 0.000198 0.088960 -0.100735
v 0.000214 0.002819 0.171940
v 0.000198 0.063486 0.162517
v -0.120144 0.063486 0.120416
v -0.127105 0.002819 0.127398
v 0.000214 0.002819 0.190872
v -0.141130 0.002819 0.141423
v -0.141130 -0.036354 0.141423
v 0.000214 -0.036354 0.190872
v 0.172075 0.002819 0.000080
v 0.162642 0.063486 0.000074
v 0.120541 0.063486 0.120416
v 0.127533 0.002819 0.127398
v 0.000214 0.002819 -0.171781
v 0.120541 0.063486 -0.120268
v 0.127533 0.002819 -0.127239
v -0.171647 0.002819 0.000080
v -0.127105 0.002819 -0.127239
v -0.141130 0.002819 -0.141264
v -0.190578 0.002819 0.000080
v 0.141558 -0.036354 0.141423
v 0.141558 0.002819 0.141423
v 0.191006 0.002819 0.000080
v -0.162245 0.063486 0.000074
v 0.191006 -0.036354 0.000080
v 0.000214 0.002819 -0.190713
v 0.141558 0.002819 -0.141264
v 0.141558 -0.036354 -0.141264
v 0.000214 -0.036354 -0.190713
v -0.141130 -0.036354 -0.141264
v -0.190578 -0.036354 0.000080
v 0.000198 0.088960 0.000074
v -0.100610 0.088960 0.000074
v -0.074483 0.088960 0.074756
v 0.000198 0.088960 0.100883
v 0.074880 0.088960 -0.074608
v 0.101008 0.088960 0.000074
v 0.074880 0.088960 0.074756
v -0.156887 0.002655 0.154794
v -0.156887 0.007279 0.154794
v -0.156887 0.007279 -0.155924
v -0.156887 0.002655 -0.155924
v 0.153831 0.007279 -0.155924
v 0.153831 0.002655 -0.155924
v 0.153831 0.007279 0.154794
v 0.153831 0.002655 0.154794
vt 0.780600 0.377700
vt 0.897800 0.377500
vt 0.902600 0.442200
vt 0.785400 0.442300
vt 0.097800 0.318800
vt 0.215000 0.318900
vt 0.214600 0.401700
vt 0.097400 0.401500
vt 0.785400 0.243300
vt 0.902600 0.243200
vt 0.897300 0.294800
vt 0.780100 0.294900
vt 0.354800 0.336800
vt 0.472000 0.337700
vt 0.474500 0.402400
vt 0.357300 0.401500
vt 0.301200 0.154600
vt 0.229900 0.254100
vt 0.097400 0.202500
vt 0.097400 0.119800
vt 0.765100 0.055100
vt 0.890400 0.103800
vt 0.817300 0.121000
vt 0.739500 0.090800
vt 0.505500 0.377500
vt 0.638000 0.375400
vt 0.642600 0.436600
vt 0.510300 0.442200
vt 0.129900 0.870200
vt 0.129900 0.968700
vt 0.091000 0.968700
vt 0.091000 0.870200
vt 0.510300 0.243200
vt 0.642600 0.248500
vt 0.637600 0.297200
vt 0.505000 0.294800
vt 0.643100 0.307900
vt 0.775600 0.309900
vt 0.775100 0.388100
vt 0.642600 0.390600
vt 0.187700 0.781400
vt 0.248100 0.726100
vt 0.258300 0.731800
vt 0.191300 0.793200
vt 0.062400 0.712100
vt 0.110500 0.781400
vt 0.105600 0.793200
vt 0.052100 0.716200
vt 0.454300 0.637400
vt 0.406200 0.568100
vt 0.411100 0.556300
vt 0.464500 0.633300
vt 0.122800 0.568100
vt 0.062400 0.623400
vt 0.052100 0.617700
vt 0.119200 0.556300
vt 0.219900 0.336800
vt 0.352400 0.335900
vt 0.354800 0.397000
vt 0.222300 0.401500
vt 0.168800 0.891700
vt 0.168800 0.793200
vt 0.207700 0.793200
vt 0.207700 0.891700
vt 0.091000 0.870200
vt 0.091000 0.968700
vt 0.052100 0.968700
vt 0.052100 0.870200
vt 0.168800 0.870200
vt 0.168800 0.968700
vt 0.129900 0.968700
vt 0.129900 0.870200
vt 0.248100 0.637400
vt 0.200000 0.568100
vt 0.204900 0.556300
vt 0.258300 0.633300
vt 0.328900 0.568100
vt 0.268600 0.623400
vt 0.258300 0.617700
vt 0.325400 0.556300
vt 0.393900 0.781400
vt 0.454300 0.726100
vt 0.464500 0.731800
vt 0.397500 0.793200
vt 0.268600 0.712100
vt 0.316700 0.781400
vt 0.311800 0.793200
vt 0.258300 0.716200
vt 0.697700 0.149100
vt 0.817300 0.169600
vt 0.755300 0.207500
vt 0.655900 0.207500
vt 0.505000 0.116200
vt 0.604900 0.055100
vt 0.640100 0.090800
vt 0.578100 0.128700
vt 0.890400 0.182000
vt 0.790500 0.243200
vt 0.630300 0.243200
vt 0.505000 0.194400
vt 0.578100 0.177200
vt 0.168800 0.793200
vt 0.129900 0.793200
vt 0.168800 0.968700
vt 0.207700 0.968700
vt 0.222300 0.254100
vt 0.354800 0.257700
vt 0.780100 0.436900
vt 0.647900 0.442200
vt 0.505000 0.189400
vt 0.399400 0.254100
vt 0.357300 0.254100
vt 0.474500 0.254900
vt 0.219900 0.453200
vt 0.102700 0.453100
vt 0.505000 0.106700
vt 0.372500 0.055100
vt 0.091000 0.793200
vt 0.052100 0.793200
vt 0.647900 0.243200
vt 0.780100 0.248800
vt 0.129900 0.793200
vt 0.091000 0.793200
vt 0.203000 0.055100
vt 0.102700 0.254100
vt 0.219900 0.254200
vt 0.896600 0.737500
vt 0.888400 0.737500
vt 0.888400 0.561900
vt 0.896600 0.561900
vt 0.888400 0.737500
vt 0.880100 0.737500
vt 0.880100 0.561900
vt 0.888400 0.561900
vt 0.880100 0.737500
vt 0.871900 0.737500
vt 0.871900 0.561900
vt 0.880100 0.561900
vt 0.904800 0.737500
vt 0.896600 0.737500
vt 0.896600 0.561900
vt 0.904800 0.561900
vt 0.553500 0.561900
vt 0.871900 0.561900
vt 0.871900 0.737500
vt 0.553500 0.737500
vt 0.871900 0.913100
vt 0.553500 0.913100
vt 0.553500 0.737500
vt 0.871900 0.737500
vn -0.3302 -0.0000 0.9439
vn 0.3302 0.0000 -0.9439
vn 0.9439 0.0000 0.3302
vn -0.9439 -0.0000 -0.3302
vn 0.0000 -1.0000 -0.0000
vn -0.1325 0.9160 -0.3786
vn -0.3267 0.1450 0.9339
vn 0.9339 0.1452 0.3267
vn 0.3267 0.1450 -0.9339
vn -0.0000 1.0000 0.0000
vn -0.9340 0.1447 -0.3267
vn 0.3786 0.9160 -0.1325
vn -0.3786 0.9160 0.1325
vn 0.1325 0.9160 0.3786
vn -0.3786 0.9160 -0.1325
vn 0.3786 0.9160 0.1325
vn -0.9439 -0.0000 0.3302
vn 0.9439 0.0000 -0.3302
vn -0.9340 0.1448 0.3267
vn 0.9339 0.1452 -0.3267
vn -0.1325 0.9160 0.3786
vn -0.3302 0.0000 -0.9439
vn -0.3267 0.1448 -0.9340
vn 0.3302 0.0000 0.9439
vn 0.3267 0.1451 0.9339
vn 0.1325 0.9160 -0.3786
vn -1.0000 0.0000 0.0000
vn 0.0000 0.0000 -1.0000
vn 1.0000 0.0000 0.0000
vn 0.0000 0.0000 1.0000
usemtl Material.002
s 1
f 1/1/1 2/2/1 3/3/1 4/4/1
f 5/5/2 6/6/2 7/7/2 8/8/2
f 9/9/3 10/10/3 11/11/3 12/12/3
f 13/13/4 14/14/4 15/15/4 16/16/4
f 17/17/5 9/18/5 12/19/5 1/20/5
f 18/21/6 19/22/6 20/23/6 21/24/6
f 22/25/7 23/26/7 24/27/7 25/28/7
f 26/29/1 27/30/1 28/31/1 29/32/1
f 30/33/8 31/34/8 32/35/8 33/36/8
f 34/37/9 18/38/9 35/39/9 36/40/9
f 37/41/10 38/42/10 39/43/10 40/44/10
f 22/45/10 25/46/10 27/47/10 26/48/10
f 2/49/5 11/50/5 41/51/5 29/52/5
f 30/53/10 33/54/10 42/55/10 43/56/10
f 37/57/11 44/58/11 19/59/11 38/60/11
f 43/61/3 42/62/3 41/63/3 45/64/3
f 46/65/2 47/66/2 48/67/2 49/68/2
f 40/69/4 39/70/4 50/71/4 51/72/4
f 34/73/10 36/74/10 47/75/10 46/76/10
f 10/77/5 7/78/5 48/79/5 45/80/5
f 14/81/5 3/82/5 28/83/5 51/84/5
f 6/85/5 15/86/5 50/87/5 49/88/5
f 52/89/10 53/90/10 54/91/10 55/92/10
f 31/93/12 35/94/12 56/95/12 57/96/12
f 44/97/13 24/98/13 54/91/13 53/90/13
f 23/99/14 32/100/14 58/101/14 55/92/14
f 19/22/15 44/97/15 53/90/15 20/23/15
f 32/100/16 31/93/16 57/96/16 58/101/16
f 21/24/10 20/23/10 53/90/10 52/89/10
f 15/86/5 14/81/5 51/84/5 50/87/5
f 11/50/5 10/77/5 45/80/5 41/51/5
f 27/102/17 40/69/17 51/72/17 28/103/17
f 47/104/18 43/61/18 45/64/18 48/105/18
f 25/106/19 24/107/19 44/58/19 37/57/19
f 36/74/10 30/53/10 43/56/10 47/75/10
f 25/46/10 37/41/10 40/44/10 27/47/10
f 36/40/20 35/39/20 31/108/20 30/109/20
f 5/110/5 8/111/5 9/18/5 17/17/5
f 4/112/17 3/113/17 14/14/17 13/13/17
f 8/8/18 7/7/18 10/114/18 9/115/18
f 16/116/5 5/110/5 17/17/5 13/117/5
f 56/95/10 21/24/10 52/89/10 57/96/10
f 24/98/21 23/99/21 55/92/21 54/91/21
f 57/96/10 52/89/10 55/92/10 58/101/10
f 7/78/5 6/85/5 49/88/5 48/79/5
f 38/42/10 34/73/10 46/76/10 39/43/10
f 39/118/22 46/65/22 49/68/22 50/119/22
f 3/82/5 2/49/5 29/52/5 28/83/5
f 33/54/10 22/45/10 26/48/10 42/55/10
f 38/120/23 19/121/23 18/38/23 34/37/23
f 42/122/24 26/29/24 29/32/24 41/123/24
f 33/36/25 32/35/25 23/26/25 22/25/25
f 35/94/26 18/21/26 21/24/26 56/95/26
f 13/117/5 17/17/5 1/20/5 4/124/5
f 16/125/22 15/126/22 6/6/22 5/5/22
f 12/12/24 11/11/24 2/2/24 1/1/24
f 59/127/27 60/128/27 61/129/27 62/130/27
f 62/131/28 61/132/28 63/133/28 64/134/28
f 64/135/29 63/136/29 65/137/29 66/138/29
f 66/139/30 65/140/30 60/141/30 59/142/30
f 62/143/5 64/144/5 66/145/5 59/146/5
f 63/147/10 61/148/10 60/149/10 65/150/10
