# Blender v2.78 (sub 0) OBJ File: 'CHAHIN_BURGER.blend'
# www.blender.org
mtllib CHAHIN_BURGER.mtl
o Cube.018_Cube.028
v -0.280648 -0.199141 0.281296
v -0.265278 0.140177 0.265879
v -0.280648 -0.199141 -0.280944
v -0.265278 0.140177 -0.265553
v 0.281593 -0.199141 0.281296
v 0.266154 0.140177 0.265879
v 0.281593 -0.199141 -0.280944
v 0.266154 0.140177 -0.265553
v -0.311615 -0.080270 0.312263
v -0.311615 0.006225 0.312263
v 0.312560 0.006225 0.312263
v 0.312560 -0.080270 0.312263
v -0.280648 0.006225 0.281296
v -0.280648 -0.080270 0.281296
v -0.280648 -0.080270 -0.280944
v -0.280648 0.006225 -0.280944
v 0.281593 -0.080270 -0.280944
v 0.281593 0.006225 -0.280944
v 0.281593 -0.080270 0.281296
v 0.281593 0.006225 0.281296
v 0.312560 -0.080270 -0.311912
v 0.312560 0.006225 -0.311912
v -0.311615 -0.080270 -0.311912
v -0.311615 0.006225 -0.311912
v -0.164459 0.196423 0.165061
v -0.164459 0.196423 -0.164735
v 0.165336 0.196423 -0.164735
v 0.165336 0.196423 0.165061
v -0.378996 -0.199141 0.000176
v -0.420797 -0.080270 0.000176
v -0.358237 0.140177 0.000163
v 0.379941 -0.199141 0.000176
v 0.359113 0.140177 0.000163
v -0.420797 0.006225 0.000176
v 0.421742 -0.080270 0.000176
v 0.421742 0.006225 0.000176
v 0.379941 0.006225 0.000176
v 0.379941 -0.080270 0.000176
v -0.378996 0.006225 0.000176
v -0.378996 -0.080270 0.000176
v -0.222148 0.196423 0.000163
v 0.223025 0.196423 0.000163
v 0.000473 -0.199141 -0.379293
v 0.000438 0.140177 -0.358512
v 0.000473 0.006225 0.421445
v 0.000473 -0.199141 0.379644
v 0.000438 0.140177 0.358838
v 0.000473 -0.080270 0.421445
v 0.000473 -0.080270 -0.421094
v 0.000473 0.006225 -0.421094
v 0.000473 0.006225 0.379644
v 0.000473 -0.080270 0.379644
v 0.000473 0.006225 -0.379293
v 0.000473 -0.080270 -0.379293
v 0.000438 0.196423 -0.222423
v 0.000438 0.196423 0.222749
v 0.000438 0.196423 0.000163
v 0.000473 -0.199141 0.000176
v -0.346406 0.005863 0.341785
v -0.346406 0.016073 0.341785
v -0.346406 0.005863 -0.344280
v -0.346406 0.016073 -0.344280
v 0.339660 0.005863 0.341785
v 0.339660 0.016073 0.341785
v 0.339660 0.005863 -0.344280
v 0.339660 0.016073 -0.344280
vt 0.7806 0.3777
vt 0.8978 0.3775
vt 0.9026 0.4422
vt 0.7854 0.4423
vt 0.0978 0.3188
vt 0.2150 0.3189
vt 0.2146 0.4017
vt 0.0974 0.4015
vt 0.7854 0.2433
vt 0.9026 0.2432
vt 0.8973 0.2948
vt 0.7801 0.2949
vt 0.3548 0.3368
vt 0.4720 0.3377
vt 0.4745 0.4024
vt 0.3573 0.4015
vt 0.3012 0.1546
vt 0.2299 0.2541
vt 0.0974 0.2025
vt 0.0974 0.1198
vt 0.7651 0.0551
vt 0.8904 0.1038
vt 0.8173 0.1210
vt 0.7395 0.0908
vt 0.5055 0.3775
vt 0.6380 0.3754
vt 0.6426 0.4366
vt 0.5103 0.4422
vt 0.1299 0.8702
vt 0.1299 0.9687
vt 0.0910 0.9687
vt 0.0910 0.8702
vt 0.5103 0.2432
vt 0.6426 0.2485
vt 0.6376 0.2972
vt 0.5050 0.2948
vt 0.6431 0.3079
vt 0.7756 0.3099
vt 0.7751 0.3881
vt 0.6426 0.3906
vt 0.1877 0.7814
vt 0.2481 0.7261
vt 0.2583 0.7318
vt 0.1913 0.7932
vt 0.0624 0.7121
vt 0.1105 0.7814
vt 0.1056 0.7932
vt 0.0521 0.7162
vt 0.4543 0.6374
vt 0.4062 0.5681
vt 0.4111 0.5563
vt 0.4645 0.6333
vt 0.1228 0.5681
vt 0.0624 0.6234
vt 0.0521 0.6177
vt 0.1192 0.5563
vt 0.2199 0.3368
vt 0.3524 0.3359
vt 0.3548 0.3970
vt 0.2223 0.4015
vt 0.1688 0.8917
vt 0.1688 0.7932
vt 0.2077 0.7932
vt 0.2077 0.8917
vt 0.0910 0.8702
vt 0.0910 0.9687
vt 0.0521 0.9687
vt 0.0521 0.8702
vt 0.1688 0.8702
vt 0.1688 0.9687
vt 0.1299 0.9687
vt 0.1299 0.8702
vt 0.2481 0.6374
vt 0.2000 0.5681
vt 0.2049 0.5563
vt 0.2583 0.6333
vt 0.3289 0.5681
vt 0.2686 0.6234
vt 0.2583 0.6177
vt 0.3254 0.5563
vt 0.3939 0.7814
vt 0.4543 0.7261
vt 0.4645 0.7318
vt 0.3975 0.7932
vt 0.2686 0.7121
vt 0.3167 0.7814
vt 0.3118 0.7932
vt 0.2583 0.7162
vt 0.6977 0.1491
vt 0.8173 0.1696
vt 0.7553 0.2075
vt 0.6559 0.2075
vt 0.5050 0.1162
vt 0.6049 0.0551
vt 0.6401 0.0908
vt 0.5781 0.1287
vt 0.8904 0.1820
vt 0.7905 0.2432
vt 0.6303 0.2432
vt 0.5050 0.1944
vt 0.5781 0.1772
vt 0.1688 0.7932
vt 0.1299 0.7932
vt 0.1688 0.9687
vt 0.2077 0.9687
vt 0.2223 0.2541
vt 0.3548 0.2577
vt 0.7801 0.4369
vt 0.6479 0.4422
vt 0.5050 0.1894
vt 0.3994 0.2541
vt 0.3573 0.2541
vt 0.4745 0.2549
vt 0.2199 0.4532
vt 0.1027 0.4531
vt 0.5050 0.1067
vt 0.3725 0.0551
vt 0.0910 0.7932
vt 0.0521 0.7932
vt 0.6479 0.2432
vt 0.7801 0.2488
vt 0.1299 0.7932
vt 0.0910 0.7932
vt 0.2030 0.0551
vt 0.1027 0.2541
vt 0.2199 0.2542
vt 0.8966 0.7375
vt 0.8884 0.7375
vt 0.8884 0.5619
vt 0.8966 0.5619
vt 0.8884 0.7375
vt 0.8801 0.7375
vt 0.8801 0.5619
vt 0.8884 0.5619
vt 0.8801 0.7375
vt 0.8719 0.7375
vt 0.8719 0.5619
vt 0.8801 0.5619
vt 0.9048 0.7375
vt 0.8966 0.7375
vt 0.8966 0.5619
vt 0.9048 0.5619
vt 0.5535 0.5619
vt 0.8719 0.5619
vt 0.8719 0.7375
vt 0.5535 0.7375
vt 0.8719 0.9131
vt 0.5535 0.9131
vt 0.5535 0.7375
vt 0.8719 0.7375
vn -0.3302 0.0000 0.9439
vn 0.3302 0.0000 -0.9439
vn 0.9439 0.0000 0.3302
vn -0.9439 0.0000 -0.3302
vn 0.0000 -1.0000 0.0000
vn -0.1325 0.9160 -0.3786
vn -0.3267 0.1450 0.9339
vn 0.9339 0.1452 0.3267
vn 0.3267 0.1450 -0.9339
vn 0.0000 1.0000 0.0000
vn -0.9340 0.1447 -0.3267
vn 0.3786 0.9160 -0.1325
vn -0.3786 0.9160 0.1325
vn 0.1325 0.9160 0.3786
vn -0.3786 0.9160 -0.1325
vn 0.3786 0.9160 0.1325
vn -0.9439 0.0000 0.3302
vn 0.9439 0.0000 -0.3302
vn -0.9340 0.1448 0.3267
vn 0.9339 0.1452 -0.3267
vn -0.1325 0.9160 0.3786
vn -0.3302 0.0000 -0.9439
vn -0.3267 0.1448 -0.9340
vn 0.3302 0.0000 0.9439
vn 0.3267 0.1451 0.9339
vn 0.1325 0.9160 -0.3786
vn -1.0000 0.0000 0.0000
vn 0.0000 0.0000 -1.0000
vn 1.0000 0.0000 0.0000
vn 0.0000 0.0000 1.0000
usemtl Material.002
s off
f 46/1/1 52/2/1 14/3/1 1/4/1
f 43/5/2 54/6/2 17/7/2 7/8/2
f 32/9/3 38/10/3 19/11/3 5/12/3
f 29/13/4 40/14/4 15/15/4 3/16/4
f 58/17/5 32/18/5 5/19/5 46/20/5
f 44/21/6 4/22/6 26/23/6 55/24/6
f 51/25/7 47/26/7 2/27/7 13/28/7
f 45/29/1 10/30/1 9/31/1 48/32/1
f 37/33/8 33/34/8 6/35/8 20/36/8
f 53/37/9 44/38/9 8/39/9 18/40/9
f 39/41/10 16/42/10 24/43/10 34/44/10
f 51/45/10 13/46/10 10/47/10 45/48/10
f 52/49/5 19/50/5 12/51/5 48/52/5
f 37/53/10 20/54/10 11/55/10 36/56/10
f 39/57/11 31/58/11 4/59/11 16/60/11
f 36/61/3 11/62/3 12/63/3 35/64/3
f 50/65/2 22/66/2 21/67/2 49/68/2
f 34/69/4 24/70/4 23/71/4 30/72/4
f 53/73/10 18/74/10 22/75/10 50/76/10
f 38/77/5 17/78/5 21/79/5 35/80/5
f 40/81/5 14/82/5 9/83/5 30/84/5
f 54/85/5 15/86/5 23/87/5 49/88/5
f 57/89/10 41/90/10 25/91/10 56/92/10
f 33/93/12 8/94/12 27/95/12 42/96/12
f 31/97/13 2/98/13 25/91/13 41/90/13
f 47/99/14 6/100/14 28/101/14 56/92/14
f 4/22/15 31/97/15 41/90/15 26/23/15
f 6/100/16 33/93/16 42/96/16 28/101/16
f 55/24/10 26/23/10 41/90/10 57/89/10
f 15/86/5 40/81/5 30/84/5 23/87/5
f 19/50/5 38/77/5 35/80/5 12/51/5
f 10/102/17 34/69/17 30/72/17 9/103/17
f 22/104/18 36/61/18 35/64/18 21/105/18
f 13/106/19 2/107/19 31/58/19 39/57/19
f 18/74/10 37/53/10 36/56/10 22/75/10
f 13/46/10 39/41/10 34/44/10 10/47/10
f 18/40/20 8/39/20 33/108/20 37/109/20
f 43/110/5 7/111/5 32/18/5 58/17/5
f 1/112/17 14/113/17 40/14/17 29/13/17
f 7/8/18 17/7/18 38/114/18 32/115/18
f 3/116/5 43/110/5 58/17/5 29/117/5
f 27/95/10 55/24/10 57/89/10 42/96/10
f 2/98/21 47/99/21 56/92/21 25/91/21
f 42/96/10 57/89/10 56/92/10 28/101/10
f 17/78/5 54/85/5 49/88/5 21/79/5
f 16/42/10 53/73/10 50/76/10 24/43/10
f 24/118/22 50/65/22 49/68/22 23/119/22
f 14/82/5 52/49/5 48/52/5 9/83/5
f 20/54/10 51/45/10 45/48/10 11/55/10
f 16/120/23 4/121/23 44/38/23 53/37/23
f 11/122/24 45/29/24 48/32/24 12/123/24
f 20/36/25 6/35/25 47/26/25 51/25/25
f 8/94/26 44/21/26 55/24/26 27/95/26
f 29/117/5 58/17/5 46/20/5 1/124/5
f 3/125/22 15/126/22 54/6/22 43/5/22
f 5/12/24 19/11/24 52/2/24 46/1/24
f 59/127/27 60/128/27 62/129/27 61/130/27
f 61/131/28 62/132/28 66/133/28 65/134/28
f 65/135/29 66/136/29 64/137/29 63/138/29
f 63/139/30 64/140/30 60/141/30 59/142/30
f 61/143/5 65/144/5 63/145/5 59/146/5
f 66/147/10 62/148/10 60/149/10 64/150/10
